<svg width="283" height="64" viewBox="0 0 283 64" fill="none" xmlns="http://www.w3.org/2000/svg">
  <path d="M12.3999 31.9999C12.3999 18.7451 23.1451 8 36.3999 8H246.4C259.655 8 270.4 18.7451 270.4 32C270.4 45.2548 259.655 56 246.4 56H36.3999C23.1451 56 12.3999 45.2548 12.3999 31.9999Z" fill="black"/>
  <path d="M36.3999 32L46.3999 22L56.3999 32L46.3999 42L36.3999 32Z" fill="white"/>
  <path d="M66.3999 32L76.3999 22L86.3999 32L76.3999 42L66.3999 32Z" fill="white"/>
  <path d="M96.3999 32L106.4 22L116.4 32L106.4 42L96.3999 32Z" fill="white"/>
  <path d="M126.4 32L136.4 22L146.4 32L136.4 42L126.4 32Z" fill="white"/>
  <path d="M156.4 32L166.4 22L176.4 32L166.4 42L156.4 32Z" fill="white"/>
  <path d="M186.4 32L196.4 22L206.4 32L196.4 42L186.4 32Z" fill="white"/>
  <path d="M216.4 32L226.4 22L236.4 32L226.4 42L216.4 32Z" fill="white"/>
</svg>